<svg width="71" height="71" fill="none" xmlns="http://www.w3.org/2000/svg"><circle cx="35.5" cy="35.5" r="35.5" fill="#FF7A00"/><path d="M31.66 37.113h6.68v2.227h-6.68v-2.227z" fill="#fff"/><path d="M46.829 39.34h-6.263v1.113c0 .615-.498 1.113-1.113 1.113h-8.906a1.113 1.113 0 01-1.113-1.113V39.34H23.17a3.336 3.336 0 01-3.168-2.283L16 25.046v24.313a3.344 3.344 0 003.34 3.34h31.32A3.344 3.344 0 0054 49.36V25.047l-4.003 12.01a3.335 3.335 0 01-3.168 2.283z" fill="#fff"/><path d="M39.453 19.3h-8.906a3.344 3.344 0 00-3.34 3.34v1.114h-9.291l4.198 12.598c.152.456.578.761 1.057.761h6.263V36c0-.615.498-1.113 1.113-1.113h8.906c.615 0 1.113.498 1.113 1.113v1.113h6.263c.48 0 .904-.305 1.057-.76l4.199-12.6h-9.292v-1.112a3.344 3.344 0 00-3.34-3.34zm-10.02 4.454V22.64c0-.615.5-1.114 1.114-1.114h8.906c.614 0 1.113.5 1.113 1.114v1.113H29.434z" fill="#fff"/></svg>