<svg width="71" height="71" fill="none" xmlns="http://www.w3.org/2000/svg"><circle cx="35.5" cy="35.5" r="35.5" fill="#FF7A00"/><g clip-path="url(#clip0)" fill="#fff"><path d="M24.708 24.197l-7.832 2.136A1.19 1.19 0 0016 27.479v16.625c0 .535.36 1.006.876 1.147l7.832 2.135v-23.19zm28.209 2.099l-25.834-2.28v23.55l25.834-2.28A1.187 1.187 0 0054 44.105V27.48c0-.616-.47-1.129-1.083-1.183zM32.625 41.73a1.188 1.188 0 01-2.375 0V29.854a1.188 1.188 0 012.375 0V41.73zm6.333-.792a1.188 1.188 0 01-2.375 0V30.646a1.188 1.188 0 012.375 0v10.291zm6.334-.791a1.188 1.188 0 01-2.375 0v-8.709a1.188 1.188 0 012.375 0v8.709zm5.541-.396a1.188 1.188 0 01-2.375 0v-7.52a1.188 1.188 0 012.375 0v7.52z"/></g><defs><clipPath id="clip0"><path fill="#fff" transform="translate(16 16)" d="M0 0h38v38H0z"/></clipPath></defs></svg>