<svg width="71" height="71" fill="none" xmlns="http://www.w3.org/2000/svg"><circle cx="35.5" cy="35.5" r="35.5" fill="#FF7A00"/><path d="M16.532 35.55a.813.813 0 00-.483 1.04l.51 1.404 3.886-3.885-3.913 1.442zm3.677 12.48l2.34 6.435a.816.816 0 001.045.484l2.582-.952-5.967-5.967zm34.741-5.494l-2.678-7.362-6.426 6.426 3.185-1.173a.809.809 0 011.043.48.811.811 0 01-.481 1.044l-4.046 1.492a.812.812 0 01-1.043-.481c-.002-.005 0-.01-.002-.015l-6.81 6.81 16.776-6.18a.81.81 0 00.482-1.04zm-.188-13.298l-13-13a.813.813 0 00-1.148 0L16.24 40.612a.813.813 0 000 1.15l13 12.999a.8.8 0 00.573.239c.208 0 .416-.08.575-.237l24.374-24.374a.815.815 0 000-1.151zm-29.248 9.275l-3.25 3.25a.816.816 0 01-1.15 0 .813.813 0 010-1.149l3.25-3.25a.813.813 0 011.15 1.15zm14.03 1.032c-.574.575-1.356.851-2.225.851-1.437 0-3.115-.752-4.52-2.157-1.026-1.027-1.748-2.256-2.029-3.458-.312-1.34-.055-2.508.723-3.288.779-.78 1.945-1.036 3.287-.723 1.203.282 2.431 1.001 3.458 2.03 2.257 2.255 2.833 5.22 1.307 6.745zm10.344-9.157l-3.25 3.25a.816.816 0 01-1.15 0 .813.813 0 010-1.148l3.25-3.25a.813.813 0 011.15 1.149z" fill="#fff"/></svg>