<svg width="71" height="71" fill="none" xmlns="http://www.w3.org/2000/svg"><circle cx="35.5" cy="35.5" r="35.5" fill="#FF7A00"/><path fill-rule="evenodd" clip-rule="evenodd" d="M13.816 28.505c.165.05.34.105.528.165-1.28 1.551-1.699 3.295-1.74 5.115-.059 2.587-.063 5.175-.068 7.763l-.003 1.633c-.002.57.384.808.927.811h.09c1.04.007 2.082.014 3.123-.001.71-.01.955-.266.97-.967.008-.4.006-.8.004-1.221l-.002-.597h8.834v-1.892l-.558-.002a37.065 37.065 0 00-1.204.005c-.728.02-.727-.449-.727-.95v-.028c0-.516.005-.99.74-.972.478.012.958.009 1.427.006l.605-.002.771-2.279a1.417 1.417 0 01-.047-.04.4.4 0 00-.072-.056c-1.21-.651-1.675-1.653-1.341-2.895.321-1.194 1.238-1.866 2.565-1.878.225-.002.45-.001.675-.001h.33c1.105 0 1.583-.394 1.857-1.556h-3.53c-3.42.002-6.84.003-10.26-.013-.346-.001-.912-.102-.985-.298-.107-.285.066-.742.252-1.05.391-.65.8-1.29 1.21-1.93a80.19 80.19 0 001.276-2.042c.753-1.26 1.847-1.83 3.313-1.825 3.793.011 7.585.012 11.378 0 1.465-.005 2.59.539 3.311 1.82l.035.062c.15.268.303.54.504.767.14.157.372.297.577.32.298.034.602.028.943.021.15-.003.308-.006.476-.006-.167-.266-.326-.522-.48-.77a56.09 56.09 0 00-.95-1.499c-.949-1.427-2.317-2.184-4.037-2.198a733.342 733.342 0 00-12.113 0c-1.746.014-3.13.782-4.077 2.245a98.718 98.718 0 00-1.864 2.961c-.218.365-.459.526-.901.505a27.333 27.333 0 00-2.342.003c-.67.027-1.135.505-1.223 1.178-.081.629.209 1.066.871 1.29.295.1.593.192.932.298zm4.05 6.767v-.013c-.186 0-.373.006-.56.013-.415.014-.83.028-1.234-.027-1.114-.15-1.787-1.197-1.491-2.213.297-1.022 1.394-1.558 2.436-1.187.463.165.925.331 1.388.498l1.112.4c.823.293 1.181.842 1.035 1.59-.118.601-.631.928-1.485.938-.276.004-.552.003-.828.002h-.373zM32.48 47.256h21.033c0 .2 0 .393-.002.584-.002.421-.004.825.005 1.23.016.647.275.913.916.922.812.011 1.623.008 2.435.005l.49-.002c.913-.003 1.13-.23 1.13-1.178l.003-1.751a716.8 716.8 0 00-.004-5.08c-.015-2.552-.036-5.106-1.746-7.312l.52-.173.774-.258c.74-.245 1.045-.676.949-1.342-.106-.729-.583-1.155-1.333-1.166a31.58 31.58 0 00-.791.002c-.474.005-.947.01-1.418-.023-.25-.018-.574-.188-.71-.393a67.933 67.933 0 01-1.564-2.505l-.267-.442c-.925-1.526-2.29-2.329-4.037-2.345-3.922-.038-7.844-.04-11.766.001-1.719.018-3.072.812-3.988 2.312l-.34.56c-.5.82-1 1.64-1.527 2.441-.126.192-.426.359-.655.372-.447.026-.895.023-1.344.02a26.747 26.747 0 00-1.06.006c-.648.022-1.101.506-1.172 1.185-.07.663.189 1.05.842 1.28.302.105.602.216.908.329l.416.153c-.03.062-.054.121-.078.176-.045.11-.084.203-.144.281-.874 1.134-1.258 2.463-1.298 3.853-.08 2.784-.104 5.57-.128 8.355l-.016 1.82c-.006.564.345.82.885.821.249 0 .497.002.745.003.814.003 1.628.006 2.44-.006.623-.009.88-.293.895-.949.008-.404.006-.808.004-1.222l-.002-.564zm12.685-12.604h-4.448c-2.799 0-5.598.001-8.397-.014-.263 0-.654-.109-.753-.294-.105-.197-.007-.59.13-.82.883-1.49 1.796-2.963 2.71-4.436l.02-.034c.626-1.008 1.559-1.521 2.716-1.528 3.901-.02 7.802-.02 11.703 0 1.16.006 2.09.526 2.716 1.53.911 1.463 1.82 2.93 2.697 4.414.148.25.275.68.16.877-.118.199-.546.29-.839.292-2.805.015-5.61.014-8.415.013zm8.228 6.635v.002c-.148 0-.295.002-.443.003-.329.004-.658.007-.986-.007-.701-.03-1.194-.454-1.286-1.07-.097-.64.215-1.164.887-1.42.87-.333 1.744-.657 2.627-.95.716-.239 1.38-.109 1.899.474.473.531.602 1.156.334 1.83-.287.724-.845 1.092-1.603 1.133-.328.018-.657.013-.986.009-.148-.002-.295-.004-.443-.004zm-20.865.004v-.003c-.141 0-.282.002-.423.004-.314.005-.628.01-.94-.009-.758-.044-1.326-.41-1.602-1.136-.251-.665-.151-1.298.335-1.832.525-.575 1.181-.71 1.9-.467.882.297 1.757.616 2.627.948.663.253.996.812.891 1.42-.107.618-.6 1.027-1.294 1.072a1.543 1.543 0 01-.11.003h-1.384zm9.438 2.092h2.154c.822-.002 1.644-.003 2.465.004.697.006.744.111.765 1.034.014.579-.126.898-.788.89a400.561 400.561 0 00-4.599-.011c-.845 0-1.69.002-2.534 0-.716-.002-.808-.128-.803-1 .004-.796.1-.91.826-.915.838-.004 1.676-.003 2.514-.002z" fill="#fff"/></svg>