<svg width="71" height="71" fill="none" xmlns="http://www.w3.org/2000/svg"><circle cx="35.5" cy="35.5" r="35.5" fill="#FF7A00"/><path fill-rule="evenodd" clip-rule="evenodd" d="M29.518 22.298h15.575v-2.894h-4.861a.504.504 0 01-.504-.504v-1.463a2.422 2.422 0 10-4.845 0V18.9a.504.504 0 01-.504.504h-4.86v2.894zM24.965 34.18l-.257-.136a.503.503 0 00-.48.002l-2.026 1.11v-17.07c0-.62.503-1.121 1.122-1.122H33.91a3.446 3.446 0 00-.034.472v.96h-4.86a.504.504 0 00-.505.503v1.535h-2.228a1.319 1.319 0 00-1.317 1.317v12.43zm23.364-12.738a.31.31 0 01.31.309v22.124h-2.611a2.132 2.132 0 00-2.13 2.13v2.541H32.183c.656-1.5.994-3.12.994-4.758v-4.93a.504.504 0 00-.267-.444l-6.937-3.697V21.752a.31.31 0 01.309-.31h2.228v1.36c0 .278.226.504.504.504h16.583a.504.504 0 00.504-.504v-1.36h2.228zm-5.246 5.99h-8.96a.504.504 0 000 1.009h8.96a.504.504 0 000-1.008zm-1.053 5.392a.504.504 0 100-1.008h-2.334a.504.504 0 100 1.008h2.334zm-9.848-5.391h-3.168a.504.504 0 000 1.008h3.168a.504.504 0 100-1.008zm-3.168 4.383a.504.504 0 000 1.008h9.052a.504.504 0 000-1.008h-9.052zm2.504 5.16c0 .278.226.504.504.504h2.25a.504.504 0 100-1.009h-2.25a.504.504 0 00-.504.505zm2.922 4.807h3.2a.504.504 0 000-1.008h-3.2a.504.504 0 100 1.008zm5.054 0h6.103a.504.504 0 100-1.008h-6.103a.504.504 0 100 1.008zm-3.368-4.303h9.47a.504.504 0 100-1.008h-9.47a.504.504 0 000 1.008zm7.758-4.656h1.713a.504.504 0 100-1.008h-1.713a.504.504 0 000 1.008zm1.102-4.383h.61a.503.503 0 100-1.008h-.61a.504.504 0 000 1.008zm-.08 19.482v-1.919c0-.619.502-1.12 1.122-1.121h1.918l-3.04 3.04zm6.38-30.959H40.704c.022.156.033.314.033.472v.96h4.86c.28 0 .505.225.505.503v1.535h2.228c.727 0 1.316.59 1.317 1.317v22.244c.001.393-.155.77-.433 1.046l-4.08 4.08a1.481 1.481 0 01-.353.261.499.499 0 01-.496.157 1.5 1.5 0 01-.197.015H31.684a11.896 11.896 0 01-2.915 3.47h22.518a1.123 1.123 0 001.122-1.122V18.087c0-.62-.503-1.121-1.122-1.122zM24.444 54.28l-.905-.395A10.908 10.908 0 0117 43.903v-4.745l4.936-2.705.005-.002 2.533-1.389.753.401.004.003 6.938 3.696v4.627a10.888 10.888 0 01-6.674 10.037l-.004.001-1.048.453zm-3.066-10.43a.504.504 0 10-.766.654l2.157 2.526a.503.503 0 00.701.063l5.023-4.086a.504.504 0 10-.636-.782L23.215 46l-1.838-2.152z" fill="#fff"/></svg>