<svg width="71" height="71" fill="none" xmlns="http://www.w3.org/2000/svg"><circle cx="35.5" cy="35.5" r="35.5" fill="#FF7A00"/><path fill-rule="evenodd" clip-rule="evenodd" d="M46.018 47.185L41.7 50.737a.654.654 0 01-1.061-.612l.916-5.516h.005a.647.647 0 01.073-.22l6.854-11.858V17.654a.654.654 0 00-.654-.654H21.654a.654.654 0 00-.654.654v35.34c0 .361.293.654.654.654h26.178a.654.654 0 00.654-.654v-9.992l-2.314 4.008a.655.655 0 01-.154.175zm-3.422-6.625H31.471v-1.31h11.125v1.31zm1.964-3.927H31.47v-1.309h13.09v1.31zm.654-3.927H31.471v-1.308h13.743v1.308zm0-3.926H31.471v-1.31h10.94l-.192 1.15 1.398-1.15h1.597v1.309zm-21.596-4.581v-3.927c0-.361.293-.654.654-.654h20.942c.362 0 .655.293.655.654v3.927a.654.654 0 01-.655.654H24.272a.654.654 0 01-.654-.654zm.654 12.434v-1.309h5.89v1.31h-5.89zm5.89 2.618v1.309h-5.89v-1.31h5.89zm-5.89-6.544v-1.31h5.89v1.31h-5.89zm0-3.927v-1.31h5.89v1.309h-5.89zm0 14.398h5.89v1.308h-5.89v-1.308zm12.593 7.833a.654.654 0 01-.778-.428l-.886-2.657-1.875 2.814a.655.655 0 01-1.13-.07l-.837-1.668-1.328 1.767-1.047-.785 1.964-2.618a.655.655 0 011.112.1l.804 1.609 1.992-2.989a.654.654 0 011.165.157l1.118 3.351 2.029-.507.317 1.27-2.62.654zm3.114-6.525H31.47v-1.308h8.508v1.308zm4.58-23.56H24.928v2.618H44.56v-2.617zm8.359 6.552l-9.82 17.001 2.267 1.309 9.82-17-2.267-1.31z" fill="#fff"/></svg>