<svg width="72" height="71" fill="none" xmlns="http://www.w3.org/2000/svg"><circle cx="36.499" cy="35.5" r="35.5" fill="#FF7A00"/><path fill-rule="evenodd" clip-rule="evenodd" d="M28.918 27.606c.577-7.037 6.458-12.452 13.518-12.448a13.55 13.55 0 017.202 25.036l-.023.014c-.01.005-.02.01-.028.017a13.179 13.179 0 01-8.99 1.92.705.705 0 00-.345-.064c-.004 0-.008.002-.012.004l-.012.004c-6.966-1.146-11.887-7.447-11.31-14.483zM34.366 37.7c4.792 4.308 12.116 4.113 16.673-.442a12.078 12.078 0 00-1.065-18.1.681.681 0 00-.103-.076 12.101 12.101 0 00-19.418 7.948l-.003.008c-.003.01-.003.018-.003.027 0 .007 0 .015-.002.023-.503 3.74.766 7.5 3.432 10.17.102.102.21.196.317.29.053.046.105.091.156.138l.002.002.003.002.004.003.003.003a.032.032 0 01.004.004zm6.927 1.611c2.74.3 5.49-.468 7.676-2.145a6.056 6.056 0 00-7.676 2.146zm-7.69-12.23a.377.377 0 00.174-.234l1.022-3.93a.714.714 0 01.627-.532 12.845 12.845 0 004.431-1.224.715.715 0 01.811.135l2.891 2.856a.387.387 0 00.553-.008l4.303-4.362a10.693 10.693 0 00-16.477 6.943l1.395.404a.37.37 0 00.27-.047zm15.972 15.204a4.288 4.288 0 01-4.284 4.283 4.253 4.253 0 01-4.048-2.916c.394.032.79.06 1.193.06a14.898 14.898 0 007.11-1.797l.01.107c.01.088.019.175.019.263zm3.551-14.343l-1.044-.6a.385.385 0 00-.522.14l-2.03 3.523a.716.716 0 01-.746.346 12.78 12.78 0 00-4.6 0 .72.72 0 01-.746-.346l-2.028-3.52a.377.377 0 00-.23-.18.386.386 0 00-.297.039l-5.729 3.309a.386.386 0 00-.139.53l2.029 3.521a.712.712 0 01-.078.822 12.04 12.04 0 00-1.12 1.564 10.616 10.616 0 003.946 1.943 7.493 7.493 0 0110.323-2.878 10.675 10.675 0 003.011-8.213zM18.23 48.868l5.552-5.552a.731.731 0 011.01 0l3.029 3.028c.278.28.278.73 0 1.01l-5.553 5.552-4.038-4.038zm13.634-6.553a.71.71 0 001.002-.007l1.172-1.176a15.114 15.114 0 01-4.032-4.04l-1.178 1.178a.71.71 0 000 1.005l.55.551 2.48 2.48.006.01zm21.502 2.112a.714.714 0 00-.674.48 7.678 7.678 0 01-1.43 2.482.713.713 0 00-.077.82L52.5 50.49l-3.707 2.139-1.313-2.277a.713.713 0 00-.748-.346 8.05 8.05 0 01-2.883 0 .71.71 0 00-.748.346l-1.308 2.28-3.709-2.145L39.4 48.21a.714.714 0 00-.076-.821 7.674 7.674 0 01-1.431-2.482.713.713 0 00-.674-.48h-2.635v-1.82l.707-.71c1.38.748 2.87 1.272 4.414 1.554a5.702 5.702 0 1011.16-2.341c.643-.444 1.25-.936 1.817-1.474l.003.01.005.013.006.016c.103.282.37.469.67.469H56v4.283h-2.634zm-23.024-1.614l-1.973-1.977-.044-.044-2.02 2.018 1.01 1.01 1.01 1.01 2.017-2.017zM20.763 30.97a7.68 7.68 0 01-1.432-2.482.714.714 0 00-.674-.48h-2.634v-4.284h2.634a.714.714 0 00.674-.48 7.674 7.674 0 011.432-2.482.714.714 0 00.076-.82L19.52 17.66l3.707-2.14 1.314 2.278c.15.263.45.402.747.346a8.05 8.05 0 012.883 0 .712.712 0 00.748-.346l1.309-2.28 2.748 1.585a15.088 15.088 0 00-3.34 3.853 5.617 5.617 0 00-2.906-.802 5.709 5.709 0 10.98 11.333c.135.711.322 1.412.559 2.096a.652.652 0 00-.098.003 8.05 8.05 0 01-2.883 0 .71.71 0 00-.747.346l-1.309 2.28-3.708-2.145 1.314-2.277a.713.713 0 00-.076-.821zm-1.525 23.956a.715.715 0 001.01 0l1.01-1.01-4.039-4.038-1.01 1.01a.714.714 0 000 1.008l3.03 3.03zm3.633-30.98a4.283 4.283 0 013.86-2.363c.784 0 1.553.22 2.218.636a14.875 14.875 0 00-1.504 6.502c0 .456.028.905.068 1.35a4.283 4.283 0 01-4.642-6.125z" fill="#fff"/></svg>