<svg width="71" height="71" viewBox="0 0 71 71" fill="none" xmlns="http://www.w3.org/2000/svg">
<circle cx="35.5" cy="35.5" r="35.5" fill="#FF7A00"/>
<path fill-rule="evenodd" clip-rule="evenodd" d="M13.8161 28.5047C13.9808 28.5559 14.1553 28.6101 14.344 28.6697C13.0643 30.2215 12.6451 31.9648 12.6036 33.7854C12.545 36.372 12.5406 38.9599 12.5363 41.5475C12.5354 42.0919 12.5344 42.6363 12.533 43.1807C12.5315 43.7503 12.9168 43.989 13.4603 43.9923L13.5499 43.9928C14.5908 43.9994 15.6319 44.0059 16.6727 43.9907C17.383 43.9803 17.6284 43.7254 17.6427 43.0238C17.6509 42.6243 17.649 42.2245 17.647 41.8028C17.646 41.6093 17.6451 41.4112 17.6451 41.2064H26.4792V39.3141C26.2909 39.3141 26.1052 39.3129 25.9212 39.3117C25.5139 39.3091 25.1154 39.3065 24.7172 39.3171C23.9889 39.3366 23.9895 38.8684 23.9901 38.3662C23.9902 38.3573 23.9902 38.3484 23.9902 38.3394C23.9907 37.823 23.995 37.3487 24.7292 37.367C25.2084 37.3789 25.6878 37.3759 26.1565 37.3731C26.3607 37.3718 26.5628 37.3705 26.7621 37.3705L27.5333 35.0921C27.5152 35.0774 27.4997 35.0637 27.4857 35.0513C27.4596 35.0282 27.4383 35.0094 27.4139 34.9962C26.2035 34.3449 25.7386 33.3426 26.0728 32.1014C26.3944 30.9073 27.311 30.2354 28.6383 30.2233C28.8632 30.2212 29.088 30.2216 29.3129 30.222C29.4227 30.2223 29.5325 30.2225 29.6423 30.2224C30.7484 30.2215 31.2261 29.8279 31.5004 28.6655H30.5606C29.6972 28.6656 28.8338 28.6659 27.9704 28.6662C24.5504 28.6675 21.1304 28.6688 17.7106 28.6534C17.3643 28.6519 16.7984 28.5508 16.7252 28.3551C16.6185 28.07 16.7915 27.6132 16.9765 27.3059C17.368 26.6555 17.7771 26.0153 18.1862 25.3751C18.6188 24.6983 19.0513 24.0215 19.4629 23.3328C20.2159 22.0726 21.3097 21.5033 22.7763 21.5078C26.5688 21.5192 30.3614 21.5195 34.154 21.5076C35.6188 21.503 36.7437 22.0468 37.4653 23.3286C37.4769 23.3491 37.4885 23.3698 37.5001 23.3904C37.6503 23.6579 37.803 23.9298 38.0042 24.1569C38.1432 24.3136 38.3758 24.4541 38.5811 24.4774C38.8795 24.5111 39.1826 24.505 39.5243 24.4982C39.6745 24.4951 39.8321 24.492 40 24.492C39.8326 24.2258 39.6738 23.9697 39.5197 23.7213C39.194 23.1959 38.8893 22.7046 38.5693 22.2231C37.6214 20.7961 36.2528 20.0393 34.5332 20.0252C30.4955 19.9919 26.4573 19.9914 22.4196 20.0248C20.6736 20.0393 19.2901 20.8073 18.3432 22.2696C17.7091 23.2489 17.0775 24.2305 16.4794 25.231C16.2611 25.5963 16.0204 25.7568 15.5775 25.7365C14.7985 25.7008 14.0154 25.7077 13.2359 25.7389C12.5661 25.7658 12.101 26.2439 12.0135 26.917C11.9317 27.5457 12.2215 27.9831 12.8841 28.2069C13.1793 28.3066 13.477 28.3992 13.8161 28.5047ZM17.8664 35.2721V35.2591C17.68 35.2591 17.4927 35.2654 17.3055 35.2717C16.8912 35.2856 16.4769 35.2996 16.0719 35.2453C14.9581 35.0959 14.2853 34.0481 14.5809 33.0322C14.8784 32.0095 15.9749 31.4737 17.0165 31.8448C17.4796 32.0098 17.9421 32.1762 18.4047 32.3427C18.7754 32.4761 19.1461 32.6094 19.517 32.7421C20.3403 33.0361 20.6982 33.5852 20.5515 34.3336C20.434 34.9341 19.9205 35.2606 19.0675 35.2712C18.7912 35.2747 18.5149 35.2738 18.2386 35.2729C18.1145 35.2725 17.9905 35.2721 17.8664 35.2721ZM32.4802 47.256H53.5133C53.5133 47.4551 53.5122 47.6491 53.5112 47.8397C53.5088 48.261 53.5066 48.6652 53.5163 49.0692C53.5317 49.7169 53.7911 49.9833 54.4321 49.9921C55.2437 50.0034 56.0553 50.0002 56.867 49.997C57.0305 49.9963 57.194 49.9957 57.3575 49.9951C58.2695 49.9921 58.487 49.7655 58.4878 48.8171C58.4882 48.2333 58.4891 47.6494 58.4901 47.0656C58.4928 45.3721 58.4955 43.6786 58.4859 41.9852C58.4714 39.4343 58.4496 36.8802 56.7401 34.6742C56.9232 34.6132 57.0952 34.5558 57.2602 34.5007C57.5303 34.4106 57.7819 34.3266 58.0336 34.2432C58.7742 33.9978 59.0788 33.5672 58.9828 32.9012C58.8774 32.1724 58.4003 31.7462 57.6495 31.7355C57.3861 31.7317 57.1224 31.7345 56.8588 31.7373C56.3851 31.7423 55.9117 31.7474 55.4406 31.714C55.1911 31.6963 54.8667 31.526 54.7303 31.3208C54.1857 30.502 53.6764 29.659 53.1673 28.8163C53.0782 28.6688 52.989 28.5212 52.8997 28.3738C51.9753 26.8481 50.6091 26.0453 48.8632 26.0286C44.9414 25.991 41.0185 25.9894 37.0967 26.0302C35.3781 26.048 34.0254 26.8417 33.1089 28.3419C32.9951 28.5282 32.8816 28.7147 32.7681 28.9013C32.269 29.7217 31.7698 30.5423 31.2421 31.3433C31.1159 31.5348 30.8161 31.7017 30.5871 31.715C30.14 31.7406 29.6915 31.7376 29.2428 31.7346C28.8894 31.7322 28.5359 31.7299 28.1829 31.7415C27.5345 31.7628 27.082 32.2469 27.011 32.9256C26.9415 33.5893 27.1998 33.9765 27.8533 34.2053C28.155 34.311 28.4548 34.4217 28.7606 34.5346C28.898 34.5853 29.0365 34.6365 29.177 34.6878C29.1472 34.7503 29.1226 34.8093 29.0995 34.8645C29.0541 34.9731 29.0148 35.0672 28.9547 35.1452C28.0808 36.2791 27.6966 37.6084 27.6569 38.9983C27.5776 41.7823 27.5534 44.5679 27.5292 47.3534C27.5239 47.9602 27.5186 48.5671 27.5128 49.1739C27.5073 49.7371 27.8585 49.9932 28.3985 49.9942C28.6468 49.9948 28.8951 49.9957 29.1435 49.9966C29.957 49.9997 30.7706 50.0028 31.5839 49.9912C32.2059 49.9824 32.4639 49.6981 32.4776 49.042C32.4861 48.6382 32.4841 48.234 32.4821 47.8196C32.4812 47.6341 32.4802 47.4465 32.4802 47.256ZM45.1646 34.6521C44.4374 34.6518 43.7101 34.6515 42.9828 34.6515C42.2275 34.6514 41.4723 34.6516 40.717 34.6518C37.918 34.6525 35.1191 34.6532 32.3202 34.6385C32.0571 34.6371 31.6661 34.5293 31.5671 34.3441C31.4619 34.1472 31.5601 33.7545 31.6965 33.5243C32.5802 32.0336 33.4932 30.5607 34.4062 29.088L34.4271 29.0543C35.0525 28.0456 35.9855 27.5325 37.143 27.5263C41.044 27.5058 44.9451 27.5062 48.8458 27.5259C50.0053 27.5318 50.9361 28.0523 51.5616 29.0562C52.4733 30.5194 53.3811 31.9856 54.2589 33.4698C54.407 33.7202 54.5336 34.1506 54.4182 34.3467C54.3014 34.5457 53.8731 34.6377 53.5803 34.6393C50.7751 34.6542 47.9699 34.6532 45.1646 34.6521ZM53.393 41.2866V41.289C53.2454 41.289 53.0977 41.2906 52.95 41.2922C52.6212 41.2958 52.2923 41.2994 51.9643 41.2852C51.263 41.2544 50.7703 40.8311 50.6775 40.2145C50.5814 39.5751 50.8932 39.051 51.5654 38.7944C52.4352 38.4622 53.3092 38.1382 54.1923 37.8444C54.9085 37.6063 55.5726 37.736 56.0909 38.3186C56.5638 38.8504 56.6926 39.4752 56.4254 40.1489C56.1383 40.8726 55.5799 41.2409 54.8216 41.2819C54.4939 41.2996 54.165 41.2951 53.8361 41.2906C53.6883 41.2886 53.5406 41.2866 53.393 41.2866ZM32.5278 41.2907V41.2878C32.387 41.2878 32.246 41.2899 32.105 41.2919C31.791 41.2965 31.4769 41.3011 31.1643 41.283C30.407 41.2392 29.8387 40.8739 29.5634 40.1469C29.3119 39.4824 29.4119 38.8486 29.8981 38.3152C30.423 37.7397 31.0793 37.6051 31.7979 37.8476C32.6799 38.1454 33.5554 38.4641 34.4254 38.796C35.0877 39.0488 35.4212 39.6078 35.316 40.2167C35.2093 40.8338 34.7156 41.2427 34.0218 41.2883C33.9853 41.2908 33.9487 41.2907 33.9121 41.2906C33.9053 41.2906 33.8986 41.2906 33.8918 41.2906L32.5278 41.2907ZM41.9664 43.3826C42.3171 43.383 42.6678 43.3835 43.0185 43.3835C43.3858 43.3836 43.753 43.383 44.1203 43.3825C44.9419 43.3812 45.7635 43.3799 46.5851 43.3869C47.2821 43.3927 47.329 43.4981 47.3504 44.4208C47.364 44.9999 47.2245 45.3187 46.562 45.3119C45.0292 45.2961 43.4961 45.2979 41.9631 45.2997C41.1183 45.3006 40.2735 45.3016 39.4287 45.2997C38.7134 45.2981 38.621 45.1717 38.6255 44.2994C38.6298 43.5044 38.7264 43.3892 39.4517 43.3853C40.2899 43.3807 41.1281 43.3816 41.9664 43.3826Z" fill="white"/>
</svg>
