<svg width="71" height="71" viewBox="0 0 71 71" fill="none" xmlns="http://www.w3.org/2000/svg">
<circle cx="35.5" cy="35.5" r="35.5" fill="#FF7A00"/>
<path fill-rule="evenodd" clip-rule="evenodd" d="M29.5182 22.2976H45.0928V19.4039H40.2318C39.9536 19.4039 39.7278 19.1782 39.7278 18.9V17.4366C39.7331 16.5677 39.2724 15.7629 38.521 15.3268C37.7693 14.8911 36.8417 14.8911 36.0903 15.3268C35.3386 15.7629 34.878 16.5677 34.8832 17.4366V18.9C34.8832 19.1782 34.6575 19.4039 34.3792 19.4039H29.5182V22.2976ZM24.9647 34.1814L24.7077 34.0445C24.5578 33.9645 24.3777 33.9655 24.2287 34.0472L22.2023 35.1578V18.0871C22.2029 17.4679 22.7049 16.9659 23.3241 16.9652H33.9087C33.8867 17.1214 33.8756 17.2792 33.8752 17.4367V18.3961H29.0142C28.736 18.3961 28.5103 18.6215 28.5103 18.9001V20.4347H26.2817C25.5546 20.4357 24.966 21.0247 24.9647 21.7518V34.1814ZM48.3293 21.4426C48.4999 21.4429 48.638 21.5811 48.6384 21.7517V43.8758H46.0276C44.8519 43.8771 43.8991 44.8299 43.8978 46.0055V48.5471H32.1831C32.839 47.0466 33.1773 45.4267 33.1767 43.7891V38.8599C33.1767 38.6735 33.074 38.5026 32.9096 38.415L25.9726 34.7184V21.7517C25.9729 21.5811 26.111 21.4429 26.2817 21.4426H28.5102V22.8017C28.5102 23.0799 28.736 23.3056 29.0142 23.3056H45.5967C45.8753 23.3056 46.1007 23.0799 46.1007 22.8017V21.4426H48.3293ZM43.0827 27.4336H34.1236C33.8453 27.4336 33.6193 27.6591 33.6193 27.9376C33.6193 28.2159 33.845 28.4416 34.1233 28.4416H43.0827C43.361 28.4416 43.5867 28.2159 43.5867 27.9376C43.5867 27.6591 43.361 27.4336 43.0827 27.4336ZM42.0301 32.8246C42.3087 32.8246 42.5341 32.5988 42.5341 32.3206C42.5341 32.042 42.3084 31.8166 42.0298 31.8166H39.6959C39.4177 31.8166 39.192 32.042 39.192 32.3206C39.192 32.5988 39.4177 32.8246 39.6959 32.8246H42.0301ZM32.1818 27.4336H29.0145C28.7363 27.4336 28.5102 27.6591 28.5102 27.9376C28.5102 28.2159 28.736 28.4416 29.0142 28.4416H32.1818C32.4604 28.4416 32.6858 28.2159 32.6858 27.9376C32.6858 27.6591 32.4604 27.4336 32.1818 27.4336ZM29.0145 31.8166C28.7363 31.8166 28.5105 32.042 28.5105 32.3206C28.5105 32.5988 28.736 32.8246 29.0142 32.8246H38.0665C38.3448 32.8246 38.5705 32.5988 38.5705 32.3206C38.5705 32.042 38.3448 31.8166 38.0665 31.8166H29.0145ZM31.518 36.9765C31.518 37.2551 31.7438 37.4805 32.022 37.4805H34.2726C34.5508 37.4805 34.7765 37.2551 34.7765 36.9765C34.7765 36.6983 34.5508 36.4725 34.2726 36.4725H32.022C31.7438 36.4725 31.518 36.6983 31.518 36.9765ZM34.4396 41.7844H37.64C37.9182 41.7844 38.144 41.5586 38.144 41.2804C38.144 41.0018 37.9182 40.7764 37.64 40.7764H34.4396C34.1613 40.7764 33.9356 41.0018 33.9356 41.2804C33.9356 41.5586 34.1613 41.7844 34.4396 41.7844ZM39.4942 41.7844H45.5967C45.8753 41.7844 46.1007 41.5586 46.1007 41.2804C46.1007 41.0018 45.8753 40.7764 45.5967 40.7764H39.4942C39.2159 40.7764 38.9902 41.0018 38.9902 41.2804C38.9902 41.5586 39.2159 41.7844 39.4942 41.7844ZM36.1264 37.4808H45.5967C45.8753 37.4808 46.1007 37.2551 46.1007 36.9768C46.1007 36.6986 45.8753 36.4728 45.5967 36.4728H36.1264C35.8482 36.4728 35.6224 36.6986 35.6224 36.9768C35.6224 37.2551 35.8482 37.4808 36.1264 37.4808ZM43.8843 32.8246H45.5967C45.8753 32.8246 46.1007 32.5991 46.1007 32.3206C46.1007 32.0423 45.8753 31.8166 45.5967 31.8166H43.8843C43.6061 31.8166 43.3803 32.0423 43.3803 32.3206C43.3803 32.5991 43.6061 32.8246 43.8843 32.8246ZM44.9855 28.4416H45.5967C45.8753 28.4416 46.1004 28.2162 46.1004 27.9376C46.1004 27.6594 45.875 27.4336 45.5964 27.4336H44.9855C44.7072 27.4336 44.4815 27.6594 44.4815 27.9376C44.4815 28.2162 44.7072 28.4416 44.9855 28.4416ZM44.9058 47.9236V46.0054C44.9064 45.3863 45.4084 44.8843 46.0276 44.8836H47.9457L44.9058 47.9236ZM51.2869 16.9652H40.7026C40.7246 17.1214 40.7358 17.2792 40.7358 17.4367V18.3961H45.5968C45.8753 18.3961 46.1007 18.6215 46.1007 18.9001V20.4347H48.3293C49.0564 20.4357 49.6454 21.0247 49.6463 21.7518V43.9959C49.6473 44.3887 49.4911 44.7653 49.2129 45.0423L45.1335 49.1217C45.0295 49.226 44.9104 49.314 44.7804 49.3832C44.6577 49.5246 44.4661 49.5853 44.284 49.5404C44.219 49.5496 44.1534 49.5545 44.0874 49.5551H31.6841C30.9439 50.8876 29.9543 52.0652 28.7695 53.0243H51.2869C51.9061 53.0233 52.4081 52.5216 52.4087 51.9025V18.0871C52.4081 17.4679 51.9061 16.9659 51.2869 16.9652ZM24.4433 54.2797L23.538 53.885C19.5704 52.1502 17.0046 48.2329 17 43.9028V39.1582L21.9365 36.4526L21.9407 36.4506L24.4741 35.0621L25.2265 35.463L25.2314 35.4656L32.1687 39.1622V43.7892C32.1677 48.1735 29.5372 52.1292 25.4949 53.8259L25.4913 53.8272L24.4433 54.2797ZM21.3774 43.8493C21.1966 43.6376 20.8786 43.6127 20.667 43.7935C20.4554 43.9743 20.4304 44.2926 20.6112 44.5039L22.7682 47.0297C22.9458 47.238 23.2571 47.2663 23.4694 47.0933L28.4925 43.0067C28.6339 42.8935 28.7038 42.7133 28.6756 42.5345C28.6474 42.3557 28.5253 42.2054 28.356 42.1414C28.1867 42.0775 27.9957 42.1093 27.8563 42.2248L23.2148 46.001L21.3774 43.8493Z" fill="white"/>
</svg>
