<svg width="72" height="71" viewBox="0 0 72 71" fill="none" xmlns="http://www.w3.org/2000/svg">
<circle cx="36.4986" cy="35.5001" r="35.5" fill="#FF7A00"/>
<path fill-rule="evenodd" clip-rule="evenodd" d="M28.9181 27.6057C29.4948 20.5694 35.3758 15.1538 42.4359 15.1581C48.4816 15.1523 53.7998 19.1523 55.4709 24.9622C57.1423 30.7724 54.7621 36.9868 49.6375 40.1941C49.6305 40.1993 49.6226 40.2034 49.6147 40.2075C49.6048 40.2127 49.595 40.2178 49.5869 40.2249C46.9175 41.9235 43.7263 42.6051 40.5961 42.1452C40.4888 42.0955 40.3704 42.0735 40.2524 42.0815C40.248 42.0819 40.244 42.0835 40.24 42.0851L40.24 42.0852C40.2362 42.0867 40.2325 42.0882 40.2283 42.0888C33.2616 40.9432 28.341 34.6423 28.9181 27.6057ZM34.3663 37.6999C39.1581 42.0077 46.4823 41.8134 51.0393 37.2582C53.5049 34.8161 54.8008 31.4312 54.5968 27.9671C54.3927 24.5026 52.7085 21.2934 49.9736 19.1575C49.9419 19.1295 49.9077 19.1041 49.8714 19.0825C46.4512 16.4257 41.872 15.7992 37.8637 17.4398C33.8554 19.0804 31.0296 22.7376 30.4534 27.0301L30.4495 27.0384C30.4469 27.0472 30.4469 27.0559 30.4469 27.0647C30.4469 27.0723 30.4469 27.08 30.4452 27.0878C29.9423 30.8273 31.2114 34.5877 33.877 37.2582C33.9793 37.3605 34.0868 37.4543 34.1943 37.5481L34.1944 37.5482L34.1944 37.5482C34.2466 37.5938 34.2988 37.6393 34.3504 37.6858L34.3525 37.6882L34.3548 37.6903L34.3588 37.6934L34.3616 37.6956C34.3633 37.6969 34.3649 37.6983 34.3663 37.6999ZM41.293 39.3115C44.0328 39.6116 46.7824 38.843 48.9689 37.1656C46.234 35.8589 42.954 36.7761 41.293 39.3115ZM33.6032 27.0817C33.6901 27.0301 33.7526 26.9456 33.7767 26.8474L34.7988 22.9166C34.8747 22.625 35.1254 22.4122 35.4255 22.385C36.1938 22.3161 36.9545 22.1779 37.6984 21.9724C38.4404 21.7662 39.163 21.4947 39.8572 21.1608C40.1292 21.0305 40.4534 21.0848 40.6681 21.2962L43.5592 24.1519C43.633 24.2251 43.7334 24.2656 43.8374 24.2641C43.9414 24.2626 44.0405 24.2193 44.1122 24.1436L48.4151 19.7822C45.4237 17.7738 41.6222 17.4071 38.302 18.8062C34.9818 20.2052 32.5894 23.182 31.9376 26.7254L33.3326 27.1293C33.4257 27.1482 33.5224 27.1314 33.6032 27.0817ZM49.5747 42.2849C49.572 44.6495 47.656 46.5655 45.2913 46.5683C43.4534 46.5731 41.8202 45.3971 41.2425 43.6522C41.6372 43.6836 42.033 43.7126 42.4359 43.7126C44.9189 43.7153 47.3629 43.0974 49.5461 41.9152C49.5491 41.9508 49.5528 41.9865 49.5565 42.0221C49.5656 42.1097 49.5747 42.1973 49.5747 42.2849ZM53.1264 27.9424L52.0815 27.3419C51.9924 27.2909 51.8869 27.2775 51.7881 27.3047C51.6911 27.3303 51.6088 27.3943 51.5597 27.4819L49.5296 31.0052C49.3786 31.2663 49.0803 31.4047 48.7836 31.3514C47.2631 31.0732 45.7046 31.0732 44.1839 31.3514C43.8874 31.4035 43.5898 31.2654 43.4379 31.0052L41.4105 27.4858C41.3611 27.3968 41.2776 27.3312 41.1791 27.3047C41.079 27.2775 40.9723 27.2915 40.8829 27.3437L35.1544 30.6529C35.0654 30.7045 35.0007 30.7893 34.9745 30.8887C34.9483 30.9881 34.9629 31.0939 35.0151 31.1824L37.0439 34.7042C37.1958 34.9671 37.1644 35.2971 36.9658 35.5265C36.5513 36.0172 36.1768 36.5403 35.8459 37.0905C37.011 38.0064 38.3551 38.6682 39.7916 39.0333C40.7621 37.2653 42.4048 35.9632 44.3474 35.4216C46.2902 34.8799 48.3694 35.1443 50.1149 36.1548C52.2456 33.9731 53.3418 30.9844 53.1264 27.9424ZM18.2286 48.8683L23.7814 43.3158C24.0638 43.0462 24.5082 43.0462 24.7906 43.3155L27.8199 46.3441C28.098 46.6232 28.098 47.0746 27.8199 47.354L22.2671 52.9064L18.2286 48.8683ZM31.8634 42.3154C32.1425 42.5887 32.5896 42.5856 32.8647 42.3084L34.0368 41.1317C32.4487 40.0535 31.0805 38.6829 30.0053 37.0926L28.8274 38.2705C28.5505 38.5481 28.5505 38.997 28.8274 39.2746L29.3777 39.8263L31.8573 42.3056L31.8634 42.3154ZM53.3652 44.4266C53.0611 44.4266 52.7906 44.6194 52.6908 44.9067C52.3739 45.8165 51.8884 46.6586 51.2601 47.3888C51.0631 47.6185 51.0326 47.9475 51.1838 48.2095L52.5014 50.49L48.7939 52.629L47.4805 50.3518C47.3296 50.0898 47.0304 49.9514 46.733 50.0063C45.7799 50.1798 44.803 50.1798 43.8499 50.0063C43.5525 49.9508 43.2527 50.0892 43.1023 50.3518L41.7936 52.6317L38.0854 50.487L39.399 48.2098C39.55 47.9475 39.5198 47.6188 39.3228 47.3888C38.6942 46.6586 38.2086 45.8165 37.8917 44.9067C37.7923 44.6194 37.5215 44.4266 37.2177 44.4266H34.5834V42.6061L35.2901 41.897C36.6702 42.6445 38.1598 43.1691 39.704 43.4513C40.1188 45.4484 41.5688 47.0722 43.5067 47.709C45.4447 48.3456 47.5751 47.8987 49.0937 46.5366C50.6123 45.1748 51.2875 43.1054 50.8645 41.1098C51.5071 40.6663 52.1141 40.1738 52.6805 39.6363L52.6842 39.6467L52.689 39.6587C52.6912 39.6644 52.6934 39.67 52.6954 39.6754C52.7979 39.9566 53.0657 40.1439 53.3652 40.1436H55.9994V44.4266H53.3652ZM30.3409 42.8132L28.3685 40.8359L28.3243 40.7916L26.3046 42.8104L27.3147 43.8206L28.3243 44.8298L30.3409 42.8132ZM20.7628 30.9698C20.1342 30.2396 19.6487 29.3975 19.3315 28.4877C19.2317 28.2004 18.9612 28.0076 18.6571 28.0076H16.0228V23.7243H18.6571C18.9612 23.7243 19.2317 23.5318 19.3315 23.2445C19.6487 22.3347 20.1339 21.4926 20.7628 20.7624C20.9595 20.5325 20.99 20.2034 20.8388 19.9414L19.5209 17.6609L23.2284 15.5219L24.542 17.7994C24.6918 18.0623 24.9919 18.201 25.2893 18.1446C26.2424 17.9711 27.2193 17.9711 28.1724 18.1446C28.4698 18.1998 28.7693 18.0614 28.92 17.7994L30.2287 15.5195L32.9774 17.1043C31.6531 18.1898 30.5234 19.4927 29.6364 20.9573C28.7589 20.4303 27.7543 20.1527 26.731 20.1552C24.5725 20.1539 22.5983 21.37 21.6281 23.2979C20.6579 25.2258 20.858 27.5358 22.1448 29.2685C23.4316 31.0009 25.5857 31.8598 27.7116 31.488C27.8464 32.1992 28.0331 32.8998 28.27 33.5842C28.2377 33.5827 28.2051 33.5839 28.1724 33.5873C27.2193 33.7608 26.2424 33.7608 25.2893 33.5873C24.9919 33.5315 24.6921 33.6702 24.542 33.9328L23.233 36.2127L19.5254 34.0679L20.8391 31.7905C20.9903 31.5285 20.9598 31.1994 20.7628 30.9698ZM19.2381 54.9256C19.5172 55.204 19.9692 55.204 20.2482 54.9256L21.2575 53.916L17.2193 49.8778L16.2098 50.8871C16.0759 51.021 16.0005 51.2024 16.0005 51.3915C16.0005 51.581 16.0759 51.7624 16.2098 51.8963L19.2381 54.9256ZM22.8706 23.946C23.602 22.4872 25.0989 21.5707 26.7309 21.5829C27.5151 21.5835 28.2837 21.8037 28.9492 22.2188C27.9616 24.2443 27.4471 26.468 27.4446 28.7213C27.4446 29.177 27.4733 29.6257 27.513 30.071C25.9108 30.3811 24.2718 29.7538 23.286 28.4533C22.3002 27.1524 22.1392 25.4048 22.8706 23.946Z" fill="white"/>
</svg>
