<svg width="71" height="71" viewBox="0 0 71 71" fill="none" xmlns="http://www.w3.org/2000/svg">
<circle cx="35.5" cy="35.5" r="35.5" fill="#FF7A00"/>
<path d="M31.6602 37.1133H38.3398V39.3398H31.6602V37.1133Z" fill="white"/>
<path d="M46.8289 39.3398H40.5664V40.4531C40.5664 41.0683 40.0683 41.5664 39.4531 41.5664H30.5469C29.9317 41.5664 29.4336 41.0683 29.4336 40.4531V39.3398H23.1711C21.7317 39.3398 20.4586 38.4222 20.0029 37.0567L16 25.046V49.3593C16 51.2009 17.4983 52.6992 19.3398 52.6992H50.6602C52.5017 52.6992 54 51.2009 54 49.3593V25.0469L49.9968 37.0567C49.5414 38.4222 48.2683 39.3398 46.8289 39.3398Z" fill="white"/>
<path d="M39.4531 19.3008H30.5469C28.7053 19.3008 27.207 20.7991 27.207 22.6406V23.7539H17.9155L22.1143 36.3522C22.2665 36.8077 22.6916 37.1133 23.1711 37.1133H29.4336V36C29.4336 35.3848 29.9317 34.8867 30.5469 34.8867H39.4531C40.0683 34.8867 40.5664 35.3848 40.5664 36V37.1133H46.8289C47.3084 37.1133 47.7334 36.8077 47.8856 36.3522L52.0848 23.7539H42.793V22.6406C42.793 20.7991 41.2947 19.3008 39.4531 19.3008ZM29.4336 23.7539V22.6406C29.4336 22.0263 29.9325 21.5273 30.5469 21.5273H39.4531C40.0674 21.5273 40.5664 22.0263 40.5664 22.6406V23.7539H29.4336Z" fill="white"/>
</svg>
