<svg width="71" height="71" viewBox="0 0 71 71" fill="none" xmlns="http://www.w3.org/2000/svg">
<circle cx="35.5" cy="35.5" r="35.5" fill="#FF7A00"/>
<path fill-rule="evenodd" clip-rule="evenodd" d="M46.0184 47.1853L41.6991 50.7373C41.4885 50.9108 41.1924 50.9354 40.9561 50.799C40.7199 50.6625 40.5927 50.3941 40.6375 50.1248L41.554 44.6086H41.5586C41.5696 44.5313 41.5947 44.4566 41.6323 44.3882L48.4863 32.5309V17.6544C48.4863 17.293 48.1932 17 47.8319 17H21.6544C21.293 17 21 17.293 21 17.6544V52.994C21 53.3554 21.293 53.6484 21.6544 53.6484H47.8319C48.1932 53.6484 48.4863 53.3554 48.4863 52.994V43.0019L46.1722 47.0097C46.132 47.0768 46.0798 47.1364 46.0184 47.1853ZM42.5964 40.5596H31.471V39.2508H42.5964V40.5596ZM44.5598 36.6332H31.471V35.3241H44.5598V36.6332ZM45.2142 32.7065H31.471V31.3977H45.2142V32.7065ZM45.2142 28.7798H31.471V27.471H42.4107L42.2194 28.6211L43.6175 27.471H45.2142V28.7798ZM23.6179 24.1987V20.272C23.6179 19.9107 23.9107 19.6176 24.2723 19.6176H45.2142C45.5756 19.6176 45.8686 19.9107 45.8686 20.272V24.1987C45.8686 24.5601 45.5756 24.8531 45.2142 24.8531H24.2723C23.9107 24.8531 23.6179 24.5601 23.6179 24.1987ZM24.2723 36.6332V35.3241H30.1622V36.6332H24.2723ZM30.1622 39.2508V40.5596H24.2723V39.2508H30.1622ZM24.2723 32.7065V31.3977H30.1622V32.7065H24.2723ZM24.2723 28.7798V27.471H30.1622V28.7798H24.2723ZM24.2723 43.1775H30.1622V44.4863H24.2723V43.1775ZM36.8649 51.0109C36.8129 51.0239 36.76 51.0303 36.7065 51.0306C36.4252 51.0301 36.1757 50.8499 36.0869 50.583L35.2014 47.9259L33.3257 50.7398C33.1982 50.9364 32.9735 51.0475 32.7399 51.0301C32.5072 51.0152 32.2997 50.8778 32.1955 50.6692L31.3591 49.0018L30.0311 50.769L28.9841 49.9836L30.9476 47.3657C31.0833 47.1827 31.3049 47.0832 31.5316 47.1036C31.7589 47.1241 31.959 47.2613 32.0599 47.4658L32.8642 49.075L34.8564 46.0863C34.9953 45.8785 35.24 45.7679 35.4878 45.8012C35.735 45.8345 35.942 46.0057 36.0214 46.2429L37.1392 49.5941L39.168 49.0868L39.4846 50.3565L36.8649 51.0109ZM39.9788 44.4863H31.471V43.1775H39.9788V44.4863ZM44.5599 20.9265H24.9267V23.5441H44.5599V20.9265ZM52.9179 27.4783L43.0988 44.4792L45.365 45.788L55.1841 28.7871L52.9179 27.4783Z" fill="white"/>
</svg>
