<svg width="71" height="71" viewBox="0 0 71 71" fill="none" xmlns="http://www.w3.org/2000/svg">
<circle cx="35.5" cy="35.5" r="35.5" fill="#FF7A00"/>
<path d="M16.5317 35.5506C16.1125 35.705 15.8964 36.1697 16.0491 36.5905L16.5594 37.9945L20.4445 34.1093L16.5317 35.5506Z" fill="white"/>
<path d="M20.209 48.03L22.549 54.4648C22.6221 54.6679 22.7748 54.8337 22.9698 54.923C23.0786 54.9734 23.1956 54.9994 23.3126 54.9994C23.4085 54.9994 23.5027 54.9832 23.5938 54.9491L26.1758 53.9969L20.209 48.03Z" fill="white"/>
<path d="M54.9501 42.5361L52.2723 35.1736L45.8457 41.6002L49.0305 40.4269C49.4481 40.2677 49.9193 40.4854 50.0737 40.9079C50.2297 41.3288 50.0136 41.7968 49.5927 41.9512L45.5466 43.4428C45.454 43.477 45.3598 43.4932 45.2655 43.4932C44.9356 43.4932 44.6236 43.2901 44.5034 42.9618C44.5018 42.957 44.5034 42.9521 44.5018 42.9472L37.6917 49.7573L54.4675 43.5761C54.8883 43.4217 55.1044 42.957 54.9501 42.5361Z" fill="white"/>
<path d="M54.7624 29.238L41.7628 16.2385C41.446 15.9216 40.9309 15.9216 40.614 16.2385L16.24 40.6125C15.9231 40.9294 15.9231 41.4445 16.24 41.7614L29.2395 54.7609C29.3971 54.9201 29.6051 54.9997 29.8131 54.9997C30.0211 54.9997 30.2291 54.9201 30.3883 54.7625L54.7624 30.3885C55.0792 30.07 55.0792 29.5565 54.7624 29.238ZM25.5135 38.5131L22.2636 41.763C22.1044 41.9206 21.8964 42.0002 21.6884 42.0002C21.4804 42.0002 21.2724 41.9206 21.1132 41.763C20.7963 41.4461 20.7963 40.931 21.1132 40.6141L24.3631 37.3642C24.6799 37.0474 25.1951 37.0474 25.5119 37.3642C25.8288 37.6812 25.8304 38.1946 25.5135 38.5131ZM39.5448 39.5449C38.9696 40.1202 38.188 40.3964 37.3186 40.3964C35.8822 40.3964 34.2036 39.6441 32.7997 38.2385C31.7727 37.2115 31.0512 35.983 30.7702 34.7806C30.4582 33.4401 30.7149 32.2734 31.4932 31.4934C32.2716 30.7135 33.4383 30.4567 34.7804 30.7704C35.9829 31.0515 37.2114 31.7713 38.2383 32.7999C40.4954 35.0552 41.0706 38.0191 39.5448 39.5449ZM49.8875 30.3885L46.6376 33.6383C46.4784 33.7959 46.2704 33.8756 46.0624 33.8756C45.8544 33.8756 45.6465 33.796 45.4872 33.6383C45.1703 33.3215 45.1703 32.8064 45.4872 32.4895L48.7371 29.2396C49.054 28.9227 49.5691 28.9227 49.8859 29.2396C50.2028 29.5565 50.2044 30.07 49.8875 30.3885Z" fill="white"/>
</svg>
