<svg width="23" height="23" viewBox="0 0 23 23" fill="none" xmlns="http://www.w3.org/2000/svg">
<path d="M21.4318 13.5909H13.5908V21.4318C13.5908 22.2975 12.8883 23 12.0227 23H10.9773C10.1116 23 9.40909 22.2975 9.40909 21.4318V13.5909H1.56818C0.702542 13.5909 0 12.8884 0 12.0227V10.9773C0 10.1117 0.702542 9.40915 1.56818 9.40915H9.40909V1.56825C9.40909 0.702606 10.1116 6.48499e-05 10.9773 6.48499e-05H12.0227C12.8883 6.48499e-05 13.5908 0.702606 13.5908 1.56825V9.40915H21.4318C22.2974 9.40915 22.9999 10.1117 22.9999 10.9773V12.0227C22.9999 12.8884 22.2974 13.5909 21.4318 13.5909Z" fill="#fff"/>
</svg>
