<svg width="71" height="71" viewBox="0 0 71 71" fill="none" xmlns="http://www.w3.org/2000/svg">
<circle cx="35.5" cy="35.5" r="35.5" fill="#FF7A00"/>
<g clip-path="url(#clip0)">
<path d="M24.7083 24.1969L16.8756 26.3328C16.3594 26.4737 16 26.944 16 27.4791V44.1041C16 44.6393 16.3594 45.1096 16.8756 45.2505L24.7083 47.3864V24.1969Z" fill="white"/>
<path d="M52.917 26.2964L27.0834 24.0164V47.5669L52.917 45.2869C53.5298 45.233 54 44.72 54 44.1041V27.4791C54 26.8632 53.5298 26.3502 52.917 26.2964ZM32.625 41.7291C32.625 42.3846 32.093 42.9166 31.4375 42.9166C30.782 42.9166 30.25 42.3846 30.25 41.7291V29.8541C30.25 29.1986 30.782 28.6666 31.4375 28.6666C32.093 28.6666 32.625 29.1986 32.625 29.8541V41.7291ZM38.9584 40.9374C38.9584 41.5929 38.4264 42.1249 37.7709 42.1249C37.1154 42.1249 36.5834 41.5929 36.5834 40.9374V30.6458C36.5834 29.9903 37.1154 29.4583 37.7709 29.4583C38.4264 29.4583 38.9584 29.9903 38.9584 30.6458V40.9374ZM45.2917 40.1458C45.2917 40.8013 44.7597 41.3333 44.1042 41.3333C43.4487 41.3333 42.9167 40.8013 42.9167 40.1458V31.4374C42.9167 30.7819 43.4487 30.2499 44.1042 30.2499C44.7597 30.2499 45.2917 30.7819 45.2917 31.4374V40.1458ZM50.8334 39.7499C50.8334 40.4054 50.3014 40.9374 49.6459 40.9374C48.9904 40.9374 48.4584 40.4054 48.4584 39.7499V32.2291C48.4584 31.5736 48.9904 31.0416 49.6459 31.0416C50.3014 31.0416 50.8334 31.5736 50.8334 32.2291V39.7499Z" fill="white"/>
</g>
<defs>
<clipPath id="clip0">
<rect width="38" height="38" fill="white" transform="translate(16 16)"/>
</clipPath>
</defs>
</svg>
